# xmcd CD database file
#
# Track frame offsets:
#	150
#	28697
#	30711
#	46852
#	66440
#	69526
#	105900
#	109067
#	141670
#	142786
#	167670
#	169631
#	187142
#	187442
#	188818
#	253342
#	256637
#	258008
#	274395
#	297541
#	298221
#	310938
#	315960
#	357375
#
# Disc length: 4828 seconds
#
# Revision: 0
# Processed by: cddbd v1.5.1PL0 Copyright (c) Steve Scherf et al.
# Submitted via: CDex 1.51
#
DISCID=7c12da18
DTITLE=Duke Ellington - Newport 1956 (single disc)
DYEAR=1900
DGENRE=Jazz
TTITLE0=03 - Black And Tan Fantasy
TTITLE1=04 - Duke Introduces Cook and Tune
TTITLE2=05 - Tea For Two
TTITLE3=07 - Take The A Train
TTITLE4=08 - Duke Announces A Train and Nance etc
TTITLE5=09 - Part I - Festival Junction (Live)
TTITLE6=10 - Duke Announces Soloists - Introduces Part II (Live)
TTITLE7=11 - Part II - Blues To Be There (Live)
TTITLE8=12 - Duke ann. Nance and Procope - Introduces Part III (Live)
TTITLE9=13 - Part III - Newport Up (Live)
TTITLE10=14 - Duke ann. Ham, Gon, and Terry-Introduces Carney and Tune (Live)
TTITLE11=15 - Sophisticated Lady (Live)
TTITLE12=16 - Duke announces Carney
TTITLE13=18 - Duke Introduces Tunes And Paul Gonsalves Interludes (Live)
TTITLE14=19 - Diminuendo In Blue And Crescendo In Blue (Live)
TTITLE15=20 - Announcements, Pandemonium (Live)
TTITLE16=01 - Duke Introduces Johnny Hodges
TTITLE17=02 - I Got It Bad (And That Ain't Good)
TTITLE18=03 - Jeep's Blues
TTITLE19=04 - Duke Calms Crowd - Introduces Nance and Tune
TTITLE20=05 - Tulip Or Turnip
TTITLE21=06 - Riot Prevention
TTITLE22=07 - Skin Deep
TTITLE23=08 - Mood Indigo
EXTD=
EXTT0=
EXTT1=
EXTT2=
EXTT3=
EXTT4=
EXTT5=
EXTT6=
EXTT7=
EXTT8=
EXTT9=
EXTT10=
EXTT11=
EXTT12=
EXTT13=
EXTT14=
EXTT15=
EXTT16=
EXTT17=
EXTT18=
EXTT19=
EXTT20=
EXTT21=
EXTT22=
EXTT23=
PLAYORDER=
